<?xml version="1.0" encoding="UTF-8" standalone="no"?>
<svg width="60" height="60" viewBox="0 0 60 60" fill="none" xmlns="http://www.w3.org/2000/svg">
  <path d="M54 22.5C54 16.1487 48.8513 11 42.5 11C36.1487 11 31 16.1487 31 22.5C31 28.8513 36.1487 34 42.5 34C48.8513 34 54 28.8513 54 22.5Z" stroke="white" stroke-width="0.5"/>
  <path d="M29 42.5C29 36.1487 23.8513 31 17.5 31C11.1487 31 6 36.1487 6 42.5C6 48.8513 11.1487 54 17.5 54C23.8513 54 29 48.8513 29 42.5Z" stroke="white" stroke-width="0.5"/>
  <path d="M42 47L47 42" stroke="white" stroke-width="0.5"/>
  <path d="M13 18L18 13" stroke="white" stroke-width="0.5"/>
  <circle cx="30" cy="30" r="1.5" fill="white"/>
  <circle cx="45" cy="45" r="1" fill="white"/>
  <circle cx="15" cy="15" r="1" fill="white"/>
  <circle cx="5" cy="5" r="0.5" fill="white"/>
  <circle cx="55" cy="55" r="0.5" fill="white"/>
</svg>
